<?xml version="1.0" encoding="UTF-8" standalone="no"?>
<!DOCTYPE svg PUBLIC "-//W3C//DTD SVG 1.1//EN" "http://www.w3.org/Graphics/SVG/1.1/DTD/svg11.dtd">
<svg width="100%" height="100%" viewBox="0 0 800 800" version="1.1" xmlns="http://www.w3.org/2000/svg" xmlns:xlink="http://www.w3.org/1999/xlink" xml:space="preserve" xmlns:serif="http://www.serif.com/" style="fill-rule:evenodd;clip-rule:evenodd;stroke-linecap:round;stroke-linejoin:round;stroke-miterlimit:1;">
    <g transform="matrix(1,0,0,1,-235,-3091)">
        <g transform="matrix(2.02015,0,0,2.02017,-51.8034,2534.8)">
            <rect x="142.327" y="275.741" width="396.011" height="396.011" style="fill:none;"/>
            <g>
                <g transform="matrix(0.495014,0,0,0.495007,-1818.69,-130.418)">
                    <path d="M4361.54,911.598C4532.04,911.598 4670.46,1050.02 4670.46,1220.52C4670.46,1391.01 4532.04,1529.44 4361.54,1529.44C4191.04,1529.44 4052.62,1391.01 4052.62,1220.52C4052.62,1050.02 4191.04,911.598 4361.54,911.598ZM4361.54,933.82C4519.77,933.82 4648.24,1062.28 4648.24,1220.52C4648.24,1378.75 4519.77,1507.21 4361.54,1507.21C4203.31,1507.21 4074.84,1378.75 4074.84,1220.52C4074.84,1062.28 4203.31,933.82 4361.54,933.82Z"/>
                </g>
                <g transform="matrix(9.2969e-17,1.6758,-1.41831,-1.36332e-17,1995,-89.6406)">
                    <path d="M336.189,1118.88L374.589,1195.68L297.789,1195.68L336.189,1118.88Z" style="fill:none;stroke:black;stroke-width:7.09px;"/>
                </g>
            </g>
        </g>
    </g>
</svg>
